<svg version="1.1" id="레이어_1" xmlns="http://www.w3.org/2000/svg" xmlns:xlink="http://www.w3.org/1999/xlink" x="0px"
	y="0px" viewBox="0 0 700 700" style="enable-background:new 0 0 700 700;" xml:space="preserve">
	<path d="M531.9,380.8c-0.3,0-8-1-19.7-1c-24.9,0-71.1,4.4-100.8,34.1c-36.6,36.6-34.9,97.7-33.6,115.5l-18,18V405.2
		c69.4-5.1,124.3-63.1,124.3-133.7v-67.9c0-5.5-4.4-9.9-9.9-9.9c-16.4,0-32.1,3.1-46.6,8.5c-12.7-66.3-70.1-100.5-72.7-102
		c-0.1-0.1-0.2-0.1-0.3-0.2c-0.3-0.2-0.6-0.3-1-0.4c-0.3-0.1-0.5-0.2-0.8-0.3c-0.3-0.1-0.7-0.2-1-0.2c-0.3-0.1-0.6-0.1-0.9-0.1
		c-0.4,0-0.7,0-1.1,0c-0.3,0-0.5,0-0.8,0c-0.4,0-0.7,0.1-1.1,0.2c-0.3,0.1-0.5,0.1-0.8,0.2c-0.3,0.1-0.7,0.2-1,0.4
		c-0.3,0.1-0.6,0.2-0.8,0.4c-0.1,0.1-0.3,0.1-0.4,0.2c-2.6,1.5-60,35.8-72.7,102c-14.6-5.4-30.2-8.5-46.6-8.5c-5.5,0-9.9,4.4-9.9,9.9
		v67.9c0,70.7,54.9,128.6,124.3,133.7l0,142.1l-18-18c1.4-17.8,3-78.9-33.6-115.5c-29.6-29.6-75.9-34.1-100.8-34.1
		c-11.7,0-19.4,0.9-19.7,1c-4.5,0.6-8.1,4.1-8.6,8.6c-0.4,3.2-9.2,78.2,33.1,120.4c29.6,29.6,75.9,34.1,100.8,34.1
		c6.2,0,11.3-0.3,14.7-0.5l34.9,34.9c0.9,0.9,2,1.7,3.3,2.2c0,0,0.1,0,0.1,0c1.1,0.4,2.3,0.7,3.6,0.7c1.3,0,2.5-0.3,3.6-0.7
		c0,0,0.1,0,0.1,0c1.2-0.5,2.3-1.2,3.3-2.2l34.9-34.9c3.4,0.3,8.5,0.5,14.7,0.5c24.9,0,71.1-4.4,100.8-34.1l0,0
		c42.3-42.3,33.5-117.3,33.1-120.4C539.9,385,536.4,381.4,531.9,380.8z M269.5,476.9c-3.9-3.9-10.1-3.9-14,0c-3.9,3.9-3.9,10.2,0,14
		l33.2,33.2c-22.5-0.5-59.2-5.3-82.1-28.2c-28.1-28.1-28.9-76.9-28-96c2.6-0.1,5.7-0.2,9.2-0.2l0,0c21.8,0,62.2,3.7,86.8,28.3
		c22.7,22.8,27.6,59,28.2,82.1L269.5,476.9z M464.4,214v57.6c0,59.7-46,108.9-104.5,114V328C359.9,268.2,405.9,219,464.4,214z
		M340.1,385.5c-58.5-5-104.5-54.2-104.5-114V214c58.5,5,104.5,54.2,104.5,114V385.5z M350,277.5c-11.5-28.3-32.4-51.8-58.9-66.7
		c7.5-49.6,45.2-80.5,58.9-90.2c13.7,9.7,51.4,40.6,58.9,90.2C382.4,225.7,361.5,249.2,350,277.5z M493.4,495.9
		c-23,22.9-59.6,27.7-82.1,28.2l33.2-33.2c3.9-3.9,3.9-10.2,0-14c-3.9-3.9-10.1-3.9-14,0L397.3,510c0.5-23.1,5.4-59.3,28.2-82.1
		c24.6-24.6,64.9-28.3,86.7-28.3l0,0c3.5,0,6.6,0.1,9.2,0.2C522.4,419,521.6,467.7,493.4,495.9z"/>
</svg>
