<?xml version="1.0" encoding="utf-8"?>
<!-- Generator: Adobe Illustrator 26.5.0, SVG Export Plug-In . SVG Version: 6.00 Build 0)  -->
<svg version="1.1" id="Layer_1" xmlns="http://www.w3.org/2000/svg" xmlns:xlink="http://www.w3.org/1999/xlink" x="0px" y="0px"
	 viewBox="0 0 700 700" style="enable-background:new 0 0 700 700;" xml:space="preserve">
<path d="M571.5,101.9v12.2v32.6v47v56.1v59.1V365v47.5v32.9c0,4.2,0.1,8.5,0,12.7v0.8c0.1,2,0.5-1.9,0,0.1c-0.2,0.7-0.4,1.4-0.6,2.1
	c-0.6,2.1,0.2-0.7,0.3-0.6c0.1,0-0.6,1.1-0.7,1.3c-0.2,0.3-0.4,0.6-0.5,0.9c-0.5,1.3,1.4-1.4,0.4-0.5c-0.5,0.5-1,1-1.5,1.5
	c-0.1,0.1-0.8,0.7-0.8,0.7c-0.2-0.1,2.4-1.5,0.5-0.4c-0.3,0.2-0.7,0.4-0.9,0.5c-0.2,0.1-0.4,0.2-0.7,0.3c-0.5,0.3-0.4,0.2,0.3-0.1
	c0.3-0.5,1-0.3-0.1,0c-0.5,0.1-0.9,0.3-1.4,0.4c-0.3,0.1-0.7,0.2-1.1,0.2c-1.2,0.3,1.1-0.2,1.1-0.1c0,0.1-1.6,0.1-1.5,0.1H564h-4.4
	h-22.8h-37.7h-48.9h-56h-59.1h-57.8h-53h-44h-30.8c-4.5,0-9.1,0.1-13.7,0h-0.3h-0.8c-2,0.1,1.9,0.5-0.1,0c-0.4-0.1-2.8-0.5-2.8-0.8
	c0-0.2,2,1.1,1,0.4c-0.3-0.2-0.7-0.3-0.9-0.5s-0.6-0.4-0.9-0.5c-1.3-0.5,1.4,1.4,0.5,0.4c-0.4-0.5-1-1-1.5-1.5
	c-0.1-0.1-0.7-0.8-0.7-0.8c0.1-0.1,1.3,2,0.3,0.2c-0.2-0.3-0.3-0.7-0.5-0.9c-0.5-0.9-0.4-0.2-0.1,0c0.5,0.3,0.3,1,0-0.1
	c-0.1-0.5-0.3-0.9-0.4-1.4c-0.1-0.3-0.2-0.7-0.2-1.1c-0.3-1.2,0.2,1.1,0.1,1.1c-0.1,0-0.1-1.6-0.1-1.5v-3.4v-23.5v-41v-52.6v-58.1
	v-58.3v-52.4v-40.7v-23.1V102c0-0.4,0.3-2.5-0.1-0.8c-0.3,1.8,0.3-1,0.4-1.4c0.1-0.3,0.3-0.7,0.3-1c0.3-1.2-0.3,1-0.4,0.9
	c0,0,1.3-2.5,1.4-2.5c0.2,0.1-1.6,1.6-0.6,0.8c0.3-0.2,0.5-0.5,0.7-0.8c0.3-0.3,0.7-0.7,1-1c0.6-0.6,0.8-0.2,0-0.1
	c-0.9,0.2-0.6,0.4,0.1,0c0.3-0.2,0.6-0.4,0.9-0.5c0.1-0.1,0.2-0.1,0.3-0.2c0.9-0.4,0.9-0.4,0-0.1c-0.8,0.3-0.9,0.3-0.3,0.2
	c0.2-0.1,0.4-0.2,0.7-0.2c0.7-0.2,1.9-0.3,2.5-0.6c-0.1,0.1-2.2,0.1-1,0.2c0.4,0,0.8-0.1,1.1-0.1h0.1h0.3c4.6-0.1,9.3,0,13.9,0H181
	h44.1H278H336h59H451h48.6h37.7h22.5h4.2h0.3h0.1c0.4,0,0.8,0.1,1.1,0.1c1.1-0.1-0.9-0.1-1-0.2c0.6,0.3,1.8,0.4,2.5,0.6
	c0.1,0,1,0.3,1,0.4c0,0.2-2.5-1.4-0.7-0.2c0.2,0.1,1.9,1,1.8,1.1c-0.1,0.2-1.6-1.6-0.8-0.6c0.2,0.3,0.5,0.5,0.8,0.7
	c0.3,0.3,0.7,0.7,1,1c0.6,0.6,0.2,0.8,0.1,0c-0.2-0.9-0.4-0.6,0,0.1c0.2,0.4,0.5,0.9,0.7,1.3c1,1.6-0.5-1.8,0.1,0
	c0.2,0.7,0.4,1.4,0.6,2.1c0.5,2.1-0.2-0.7-0.1-0.7C571.5,100.3,571.5,102,571.5,101.9c0.1,5.7,4.9,11.2,10.9,10.9
	c5.8-0.3,11-4.8,10.9-10.9c-0.3-16-13.1-28.7-29.1-29h-3.6H539h-37.4h-49.2h-56.3h-59.6H278h-53.5h-44.3h-30.9
	c-4.4,0-8.9-0.1-13.3,0c-13.1,0.2-25.6,9.2-28.4,22.4c-0.7,3.1-0.8,6.1-0.8,9.2v22.4v40.6v52.7V279v58.9v53V432v23.2
	c0,1.5-0.1,3,0.1,4.5c1.1,15.4,13.6,27.2,29,27.5c4.2,0.1,8.4,0,12.6,0h30.4h43.9h53.3h58.5h59.6h56.5h49.3h38.1h22.3h4
	c13.6-0.2,26.5-10,28.7-23.8c0.8-5.5,0.5-11.2,0.5-16.7v-32.5v-47.6V310v-59.6v-56.6V146v-32.5v-11.5c0-5.7-5-11.2-10.9-10.9
	C576.5,91.2,571.5,95.8,571.5,101.9L571.5,101.9z"/>
<path d="M571.5,328v64.8c0,21.8,0.4,43.6,0,65.4c0,0,0,1.5-0.1,1.5c-0.3,0.1,0.5-2.4,0.1-0.7c-0.2,0.7-0.4,1.4-0.6,2.1
	c-0.6,2.3,1.3-2-0.1,0c-0.2,0.4-0.5,0.8-0.7,1.3c-1.1,2.1,1.6-1.6,0,0.1c-0.5,0.5-1,1-1.5,1.5c-1.6,1.6,1.9-1-0.1,0
	c-0.1,0.1-1.8,1.1-1.9,1c0.4-0.2,0.9-0.3,1.3-0.5c-0.4,0.2-0.9,0.3-1.4,0.5c-0.5,0.2-0.9,0.2-1.4,0.4c-2.4,0.6,2.5,0.1-0.1,0h-0.9
	h-2.6h-15h-61.1h-87.8h-96.4H214h-60.9h-14.9h-2.6h-0.8c-2.5,0.1,2.3,0.7-0.1,0c-0.6-0.2-1.2-0.3-1.8-0.5c-2.2-0.5,0.4,0,0.3,0.2
	c-0.1,0.1-2.5-1.3-2.5-1.4c0.1-0.2,1.8,1.6,0.5,0.4c-0.5-0.5-1-1-1.5-1.5c-1.7-1.6,1.1,2,0-0.1c-0.2-0.4-0.5-0.9-0.7-1.3
	c-1.3-2,0.5,2.3-0.1,0c-0.2-0.7-0.4-1.4-0.6-2.1c-0.6-2.1,0.2,0.7,0.1,0.7c-0.1,0-0.1-1.5-0.1-1.5c-0.4-24.4,0-48.8,0-73.2v-7.9
	c-1.1,2.6-2.1,5.1-3.2,7.7c10.6-9.8,21.2-19.6,31.7-29.3c16.8-15.6,33.7-31.2,50.5-46.7c3.9-3.6,7.7-7.1,11.6-10.7h-15.5
	c10.4,9.7,20.9,19.5,31.3,29.3c16.7,15.6,33.4,31.1,50,46.7c3.9,3.6,7.7,7.2,11.6,10.8c4.2,3.9,11.4,4.5,15.5,0
	c4.9-5.4,9.7-10.8,14.5-16.2c11.6-13,23.2-25.9,34.8-38.8c14.1-15.7,28.2-31.4,42.3-47.1c12.1-13.5,24.3-27.1,36.4-40.6
	c5.9-6.6,12.2-13,17.8-19.9c0.1-0.1,0.2-0.2,0.3-0.3h-15.5c14.9,12.9,29.9,25.8,44.8,38.7c23.6,20.4,47.2,40.8,70.8,61.1
	c5.4,4.7,10.9,9.4,16.3,14.1c4.3,3.7,11.3,4.6,15.5,0c3.8-4.1,4.6-11.5,0-15.5c-14.9-12.9-29.9-25.8-44.8-38.7
	c-23.6-20.4-47.2-40.8-70.8-61.1c-5.4-4.7-10.9-9.4-16.3-14.1c-4.3-3.7-11.3-4.6-15.5,0c-4.9,5.4-9.7,10.8-14.5,16.2
	c-11.6,13-23.2,25.9-34.8,38.8c-14.1,15.7-28.2,31.4-42.3,47.1c-12.1,13.5-24.3,27.1-36.4,40.6c-5.9,6.6-12.2,13-17.8,19.9
	c-0.1,0.1-0.2,0.2-0.3,0.3H312c-10.4-9.7-20.9-19.5-31.3-29.3c-16.7-15.6-33.4-31.1-50-46.7c-3.9-3.6-7.7-7.2-11.6-10.8
	c-4.4-4.2-11-4.2-15.5,0c-7,6.5-14,13-21,19.4c-13.8,12.8-27.7,25.5-41.5,38.3c-9.8,9.1-19.7,18.2-29.5,27.3
	c-0.6,0.5-1.3,1.1-1.8,1.7c-2.8,2.9-3.2,6.3-3.2,10v19.4v52.6c0,7.2,0,13.9,3.4,20.6c5,9.6,15.4,15.3,26,15.3c4.7,0.1,9.4,0,14.1,0
	h30.7h43.6h52.5h57.5h58.5h55.4h48.8h38.1h23.5h5c10.1-0.1,19.1-4.8,24.9-13.2c4-5.9,4.8-12.7,4.8-19.6v-16.8v-54.7v-47.2V328
	c0-5.7-5-11.2-10.9-10.9C576.5,317.4,571.5,321.9,571.5,328L571.5,328z"/>
<path d="M320.2,191.6c0,0.9-0.1,1.8-0.1,2.7c0,0.4-0.1,0.8-0.1,1.1c-0.2,2,0-0.5,0.1-0.7c-0.8,1.4-0.8,3.8-1.3,5.4
	c-0.2,0.7-0.5,1.4-0.7,2c-0.4,1.4,1-1.9,0.3-0.6c-0.2,0.3-0.3,0.7-0.5,1c-0.8,1.6-1.8,3.1-2.7,4.6c-1.3,2.1,1-1-0.2,0.3
	c-0.5,0.6-1.1,1.3-1.6,1.9c-0.6,0.6-1.1,1.2-1.8,1.8c-0.3,0.2-0.5,0.4-0.8,0.7c-0.2,0.2-0.4,0.3-0.5,0.4c-0.7,0.5-0.4,0.3,0.8-0.6
	c0,0.6-3.3,2.2-3.9,2.5c-0.7,0.4-1.5,0.8-2.2,1.1c-0.5,0.3-0.9,0.8,0,0.1c1.1-1-0.1,0.1-0.7,0.3c-1.6,0.6-3.2,1-4.9,1.4
	c-0.4,0.1-0.7,0.1-1.1,0.2c-1.2,0.3,1-0.1,1.1-0.1c-1,0-2,0.2-3,0.3c-1.8,0.1-3.6,0-5.3-0.2c-2-0.2,2.1,0.4-0.4-0.1
	c-1-0.2-1.9-0.4-2.8-0.7c-0.8-0.2-1.6-0.5-2.4-0.8c-0.3-0.1-0.7-0.3-1-0.4c-1.1-0.4,1,0.3,0.9,0.4c-0.3,0.3-4.3-2.3-4.7-2.6
	c-0.2-0.1-2.1-1.2-2.1-1.4c0-0.1,2.1,1.8,0.5,0.4c-0.3-0.2-0.5-0.4-0.8-0.7c-1.3-1.2-2.5-2.5-3.7-3.8c-1.3-1.4,1.3,1.9-0.2-0.3
	c-0.4-0.7-0.9-1.4-1.4-2.1c-0.4-0.6-0.7-1.3-1-1.9c-0.2-0.4-0.4-0.9-0.7-1.3c-0.8-1.5,0.1,0.6,0.2,0.7c-0.6-0.2-1.4-4.2-1.6-4.8
	c-0.2-0.8-0.3-1.7-0.5-2.5c-0.3-1.3,0.2,1.1,0.1,1.1c-0.3-0.2-0.2-1.5-0.2-1.9c-0.1-1.6-0.1-3.3,0-4.9c0-0.4,0.3-3.3,0.1-1.5
	c-0.2,1.7,0.3-1.3,0.4-1.8c0.4-1.6,1-3.2,1.5-4.9c0.3-1.2-0.3,1-0.4,0.9c-0.1-0.1,0.7-1.4,0.6-1.3c0.4-0.9,0.9-1.7,1.4-2.5
	c0.4-0.6,0.8-1.2,1.1-1.8c-0.1,0.1,0.8-1.1,0.8-1.1c0.1,0-1.5,1.7-0.6,0.8c1.3-1.3,2.4-2.6,3.7-3.9c0.4-0.3,2.2-2.1,1.1-1
	c-1.1,1.1,0.7-0.5,1.2-0.8c1.5-1,3.1-1.7,4.7-2.6c1.1-0.7-1,0.5-1,0.4c0.1-0.1,0.9-0.3,1-0.4c0.8-0.3,1.6-0.5,2.4-0.8
	c0.8-0.2,1.6-0.4,2.5-0.7c0.4-0.1,0.7-0.2,1.1-0.2c2.4-0.5-1.8,0.1-0.3,0c1.8-0.2,3.5-0.3,5.3-0.2c0.9,0,1.8,0.1,2.6,0.2
	c0.3,0,1.6,0.2,0.1,0c-1.9-0.2,0.5,0.1,0.8,0.2c1.9,0.4,3.8,1,5.6,1.6c0.7,0.2,0.8,0.7,0.1,0c-1-0.9-0.2-0.1,0.3,0.2
	c0.9,0.4,1.7,0.9,2.5,1.4c0.8,0.5,1.6,1,2.4,1.5c2.1,1.4-1.3-1.2,0.6,0.5c1.4,1.3,2.7,2.6,4,4c1.7,1.9-0.9-1.5,0.5,0.6
	c0.5,0.8,1,1.6,1.5,2.4c0.5,0.8,0.9,1.7,1.4,2.5c1.2,2.3-0.5-1.7,0.3,0.7c0.7,1.9,1.2,3.7,1.6,5.6c0.1,0.3,0.1,0.8,0.2,1.1
	c-0.8-1.8-0.2-1.5-0.1-0.3C320.1,189.3,320.1,190.5,320.2,191.6c0.1,5.7,5,11.2,10.9,10.9c5.9-0.3,11-4.8,10.9-10.9
	c-0.2-20.3-13-37.8-31.9-44.8c-17.9-6.7-39.8-0.6-51.8,14.2c-12.7,15.5-15.1,37.6-4.6,55.1c10.5,17.4,30.7,25.8,50.4,22.1
	c21.9-4.1,37.6-24.6,37.8-46.5c0.1-5.7-5.1-11.2-10.9-10.9C325.1,181,320.3,185.5,320.2,191.6L320.2,191.6z"/>
</svg>
