<svg version="1.1" id="레이어_1" xmlns="http://www.w3.org/2000/svg" xmlns:xlink="http://www.w3.org/1999/xlink" x="0px"
	y="0px" viewBox="0 0 700 700" style="enable-background:new 0 0 700 700;" xml:space="preserve">
	<path d="M550,174.2h-38.2v-5c0-16.3-8.7-31.4-22.8-39.5s-31.5-8.2-45.6,0c-14.1,8.2-22.8,23.2-22.8,39.5v5H279.5v-5
		c0-16.3-8.7-31.4-22.8-39.5c-14.1-8.2-31.5-8.2-45.6,0c-14.1,8.2-22.8,23.2-22.8,39.5v5H150c-3.3,0-6.5,1.3-8.8,3.6
		c-2.3,2.3-3.6,5.5-3.6,8.8V336c0,3.3,1.3,6.5,3.6,8.8c2.3,2.3,5.5,3.6,8.8,3.6h5V536c0,3.3,1.3,6.5,3.6,8.8c2.3,2.3,5.5,3.6,8.8,3.6
		h365.2c3.3,0,6.5-1.3,8.8-3.6c2.3-2.3,3.6-5.5,3.6-8.8V348.5h5c3.3,0,6.5-1.3,8.8-3.6c2.3-2.3,3.6-5.5,3.6-8.8V186.7
		c0-3.3-1.3-6.5-3.6-8.8C556.5,175.5,553.3,174.2,550,174.2L550,174.2z M445.4,169.2c0-7.4,4-14.3,10.4-18c6.4-3.7,14.3-3.7,20.7,0
		c6.4,3.7,10.4,10.6,10.4,18v5h-41.5V169.2z M213.1,169.2c0-7.4,4-14.3,10.4-18c6.4-3.7,14.3-3.7,20.7,0c6.4,3.7,10.4,10.6,10.4,18v5
		h-41.5L213.1,169.2z M162.4,199.1h25.7v4.1c0,12.1,4.8,23.7,13.4,32.3c8.6,8.6,20.2,13.4,32.3,13.4c4.4,0,8.6-2.4,10.8-6.2
		c2.2-3.9,2.2-8.6,0-12.4c-2.2-3.9-6.3-6.2-10.8-6.2c-5.5,0-10.8-2.2-14.7-6.1c-3.9-3.9-6.1-9.2-6.1-14.7v-4.1h207.5v4.1
		c0,12.1,4.8,23.7,13.4,32.3c8.6,8.6,20.2,13.4,32.3,13.4c4.4,0,8.6-2.4,10.8-6.2c2.2-3.9,2.2-8.6,0-12.4c-2.2-3.9-6.3-6.2-10.8-6.2
		c-5.5,0-10.8-2.2-14.7-6.1c-3.9-3.9-6.1-9.2-6.1-14.7v-4.1h92.1v124.5H162.4L162.4,199.1z M520.1,523.6H179.9V348.5h340.3V523.6z"/>
	<path d="M225.5,489.6h249c3.3,0,6.5-1.3,8.8-3.6c2.3-2.3,3.6-5.5,3.6-8.8v-83c0-3.3-1.3-6.5-3.6-8.8c-2.3-2.3-5.5-3.6-8.8-3.6h-249
		c-3.3,0-6.5,1.3-8.8,3.6c-2.3,2.3-3.6,5.5-3.6,8.8v83c0,3.3,1.3,6.5,3.6,8.8C219,488.2,222.2,489.6,225.5,489.6z M321,464.7v-58.1
		H379v58.1L321,464.7z M462,464.7h-58.1v-58.1H462L462,464.7z M238,406.6h58.1v58.1H238L238,406.6z"/>
</svg>
