<?xml version="1.0" encoding="utf-8"?>
<!-- Generator: Adobe Illustrator 26.5.0, SVG Export Plug-In . SVG Version: 6.00 Build 0)  -->
<svg version="1.1" id="Layer_1" xmlns="http://www.w3.org/2000/svg" xmlns:xlink="http://www.w3.org/1999/xlink" x="0px" y="0px"
	 viewBox="0 0 700 700" style="enable-background:new 0 0 700 700;" xml:space="preserve">
<path d="M600.3,274.3l-62.5-61c-1.4-1.4-3.3-2.2-5.3-2.2h-74.4v-21.4l5.5,3.8c1.7,1.2,3.8,1.8,5.8,1.4c2-0.3,3.9-1.5,5.1-3.2
	c1.2-1.7,1.6-3.8,1.2-5.8c-0.4-2-1.6-3.8-3.3-5L357.7,101V86.4H420c4.2,0,7.7-3.4,7.7-7.7v-35c0-2-0.8-4-2.2-5.4s-3.4-2.2-5.4-2.2
	h-62.3V35c0-4.2-3.4-7.7-7.7-7.7s-7.7,3.4-7.7,7.7v66l-114.8,79.9c-1.7,1.1-2.9,2.9-3.3,5s0,4.1,1.2,5.8c1.2,1.7,3,2.9,5.1,3.2
	c2,0.3,4.1-0.2,5.8-1.4l5.5-3.8v21.4h-74.4c-2,0-3.9,0.8-5.3,2.2l-62.3,61c-2.2,2.2-2.9,5.5-1.7,8.4c1.2,2.9,4,4.8,7.1,4.8h9.8V525
	c0,4.2,3.4,7.7,7.7,7.7h455c4.2,0,7.7-3.4,7.7-7.7V287.4h9.8c3.1,0,5.9-1.9,7.1-4.8C603.2,279.7,602.6,276.4,600.3,274.3
	L600.3,274.3z M529.4,226.4l46.8,45.7H458.3v-45.7H529.4z M412.3,51.4v19.7h-54.7V51.4L412.3,51.4z M350,114.3l93,64.7v303.4h-37.2
	V367.5c0-2-0.8-4-2.2-5.4s-3.4-2.2-5.4-2.2h-96.2c-4.2,0-7.7,3.4-7.7,7.7v114.8H257V179L350,114.3z M309.5,482.3V375.2h80.9v107.2
	H309.5z M170.6,226.4h71.1v45.7H123.8L170.6,226.4z M130.2,287.4h111.6v195h-9.8c-4.2,0-7.7,3.4-7.7,7.7v27.3h-94.1L130.2,287.4z
	 M239.5,517.3v-19.7h220.9v19.7H239.5z M569.8,517.3h-94.1V490c0-2-0.8-4-2.2-5.4s-3.4-2.2-5.4-2.2h-9.8V287.4h111.6L569.8,517.3z"
	/>
<path d="M297.5,322.7h105c4.2,0,7.7-3.4,7.7-7.7v-35c0-2-0.8-4-2.2-5.4s-3.4-2.2-5.4-2.2h-105c-4.2,0-7.7,3.4-7.7,7.7v35
	C289.8,319.2,293.3,322.7,297.5,322.7L297.5,322.7z M394.8,307.3h-37.2v-19.7h37.2V307.3z M305.2,287.7h37.2v19.7h-37.2V287.7z"/>
<path d="M203.4,307.3h-35c-4.2,0-7.7,3.4-7.7,7.7v35c0,4.2,3.4,7.7,7.7,7.7h35c4.2,0,7.7-3.4,7.7-7.7v-35c0-2-0.8-4-2.2-5.4
	S205.5,307.3,203.4,307.3L203.4,307.3z M195.8,342.3h-19.7v-19.7h19.7V342.3z"/>
<path d="M203.4,377.3h-35c-4.2,0-7.7,3.4-7.7,7.7v35c0,4.2,3.4,7.7,7.7,7.7h35c4.2,0,7.7-3.4,7.7-7.7v-35c0-2-0.8-4-2.2-5.4
	S205.5,377.3,203.4,377.3L203.4,377.3z M195.8,412.3h-19.7v-19.7h19.7V412.3z"/>
<path d="M496.6,357.7h35c4.2,0,7.7-3.4,7.7-7.7v-35c0-2-0.8-4-2.2-5.4s-3.4-2.2-5.4-2.2h-35c-4.2,0-7.7,3.4-7.7,7.7v35
	C488.9,354.2,492.3,357.7,496.6,357.7L496.6,357.7z M504.2,322.7h19.7v19.7h-19.7V322.7z"/>
<path d="M496.6,427.7h35c4.2,0,7.7-3.4,7.7-7.7v-35c0-2-0.8-4-2.2-5.4s-3.4-2.2-5.4-2.2h-35c-4.2,0-7.7,3.4-7.7,7.7v35
	C488.9,424.2,492.3,427.7,496.6,427.7L496.6,427.7z M504.2,392.7h19.7v19.7h-19.7V392.7z"/>
<path d="M350,243.9c11.3,0,22.2-4.5,30.2-12.5s12.5-18.9,12.5-30.2s-4.5-22.2-12.5-30.2s-18.9-12.5-30.2-12.5s-22.2,4.5-30.2,12.5
	s-12.5,18.9-12.5,30.2c0,11.3,4.5,22.2,12.5,30.1C327.8,239.4,338.7,243.9,350,243.9L350,243.9z M350,173.9c7.3,0,14.2,2.9,19.3,8
	c5.1,5.1,8,12.1,8,19.3s-2.9,14.2-8,19.3c-5.1,5.1-12.1,8-19.3,8s-14.2-2.9-19.3-8c-5.1-5.1-8-12.1-8-19.3s2.9-14.2,8-19.3
	C335.8,176.8,342.7,173.9,350,173.9z"/>
<path d="M345.6,213.5c2,0,4-0.8,5.4-2.2l4.4-4.4c1.5-1.5,2.3-3.5,2.2-5.6v-11.2c0-4.2-3.4-7.7-7.7-7.7s-7.7,3.4-7.7,7.7v8l-2.3,2.3
	c-1.4,1.4-2.3,3.4-2.3,5.4s0.8,4,2.3,5.4C341.5,212.7,343.5,213.5,345.6,213.5L345.6,213.5z"/>
</svg>
