<svg version="1.1" id="레이어_1" xmlns="http://www.w3.org/2000/svg" xmlns:xlink="http://www.w3.org/1999/xlink" x="0px"
	y="0px" viewBox="0 0 700 700" style="enable-background:new 0 0 700 700;" xml:space="preserve">
	<path d="M130.2,172v268h439.6V172H130.2z M162.4,204.2h375.2v203.7H162.4L162.4,204.2z M305.9,225.3c-7.9,0.6-14.6,8.2-14.6,16.4
		v128.7c0,0.5,0,1,0,1.5c0.5,5.4,3.8,10.5,8.5,13c4.7,2.5,10.6,2.3,15.1-0.4l107.2-64.3c4.7-2.9,7.8-8.5,7.8-14.2
		c0-5.7-3.1-11.3-7.8-14.2L315,227.5C312.3,225.8,309.1,225,305.9,225.3L305.9,225.3z M322.9,269.8L383,306l-60.1,36V269.8z
		M216,461.5c-11.9,0-22.2,6.5-27.8,16.1h-20.4c-8.9,0-16.1,7.2-16.1,16.1c0,8.9,7.2,16.1,16.1,16.1h20.4
		c5.6,9.6,15.9,16.1,27.8,16.1s22.2-6.5,27.8-16.1h288.5c8.9,0,16.1-7.2,16.1-16.1s-7.2-16.1-16.1-16.1H243.8
		C238.2,467.9,227.9,461.5,216,461.5z"/>
</svg>
