<svg version="1.1" id="레이어_1" xmlns="http://www.w3.org/2000/svg" xmlns:xlink="http://www.w3.org/1999/xlink" x="0px"
	y="0px" viewBox="0 0 700 700" style="enable-background:new 0 0 700 700;" xml:space="preserve">
	<g>
		<path d="M211.5,549.5h249.6c20,0,37.1-14,40.8-33.2l52.2-261.2c2.4-12.1-0.7-24.5-8.5-34.1c-7.9-9.7-19.7-15.3-32.4-15.3h-15.6
			c-0.1-22.8-18.7-41.3-41.5-41.3H211.5c-22.9,0-41.5,18.6-41.5,41.5v302C170,530.9,188.7,549.5,211.5,549.5L211.5,549.5z
			M524.5,238.4c1.5,1.9,3.9,5.8,2.8,11.2l-29.4,147.1l0-163.5h15.5C517.7,233.2,521.8,235.1,524.5,238.4L524.5,238.4z M197.5,206
			c0-7.7,6.3-14,14-14h244.8c7.7,0,14,6.3,14,14v302c0,7.7-6.3,14-14,14H211.5c-7.7,0-14-6.3-14-14V206z"/>
		<path d="M376.3,247h55c7.6,0,13.8-6.2,13.8-13.8c0-7.6-6.2-13.8-13.8-13.8h-55c-7.6,0-13.8,6.2-13.8,13.8
			C362.5,240.8,368.7,247,376.3,247z"/>
		<path d="M376.3,308.9h55c7.6,0,13.8-6.2,13.8-13.8c0-7.6-6.2-13.8-13.8-13.8h-55c-7.6,0-13.8,6.2-13.8,13.8
			C362.5,302.7,368.7,308.9,376.3,308.9z"/>
		<path d="M238.8,370.7h192.5c7.6,0,13.8-6.2,13.8-13.8c0-7.6-6.2-13.8-13.8-13.8H238.8c-7.6,0-13.8,6.2-13.8,13.8
			C225,364.6,231.2,370.7,238.8,370.7z"/>
		<path d="M238.8,432.6h192.5c7.6,0,13.8-6.2,13.8-13.8c0-7.6-6.2-13.8-13.8-13.8H238.8c-7.6,0-13.8,6.2-13.8,13.8
			C225,426.5,231.2,432.6,238.8,432.6z"/>
		<path d="M238.8,494.5h192.5c7.6,0,13.8-6.2,13.8-13.8c0-7.6-6.2-13.8-13.8-13.8H238.8c-7.6,0-13.8,6.2-13.8,13.8
			C225,488.3,231.2,494.5,238.8,494.5z"/>
		<path d="M264.9,308.9h30.3c22,0,39.8-17.9,39.8-39.8v-9.7c0-22-17.9-39.8-39.8-39.8h-30.3c-22,0-39.8,17.9-39.8,39.8v9.7
			C225,291,242.9,308.9,264.9,308.9L264.9,308.9z M252.5,259.3c0-6.8,5.5-12.3,12.3-12.3h30.3c6.8,0,12.3,5.5,12.3,12.3v9.7
			c0,6.8-5.5,12.3-12.3,12.3h-30.3c-6.8,0-12.3-5.5-12.3-12.3L252.5,259.3z"/>
	</g>
</svg>
